<svg width="57" height="54" viewBox="0 0 57 54" fill="none" xmlns="http://www.w3.org/2000/svg">
<path d="M18 45V48L19.5 50.5L22 52H51L53.5 50.5L55 48V6.5L53.5 4.5L50.5 2H22L19 4L18 6.5V10" stroke="#60798D" stroke-width="4"/>
<path d="M0.93934 25.9393C0.353553 26.5251 0.353553 27.4749 0.93934 28.0607L10.4853 37.6066C11.0711 38.1924 12.0208 38.1924 12.6066 37.6066C13.1924 37.0208 13.1924 36.0711 12.6066 35.4853L4.12132 27L12.6066 18.5147C13.1924 17.9289 13.1924 16.9792 12.6066 16.3934C12.0208 15.8076 11.0711 15.8076 10.4853 16.3934L0.93934 25.9393ZM46 27V25.5L2 25.5V27V28.5L46 28.5V27Z" fill="#60798D"/>
</svg>
